PathFileType	4	(x/y/z)	TRC_MarkerData\Calibration\Standing_Cal_SL_Passive0001.trc
DataRate	CameraRate	NumFrames	NumMarkers	Units	OrigDataRate	OrigDataStartFrame	OrigNumFrames
240	240	10	50	mm	240	319	849
Frame#	Time	R_AC			L_AC			HEAD			STERN			C7			L_IC			R_IC			L_ASIS			R_ASIS			L_GT			R_GT			L_PSIS			R_PSIS			SACRAL			L_LAT_KNEE			L_MED_KNEE			R_LAT_KNEE			R_MED_KNEE			L_LAT_ANK			L_MED_ANK			R_LAT_ANK			R_MED_ANK			L_THIGH_PROX_POST			L_THIGH_PROX_ANT			L_THIGH_DIST_ANT			L_THIGH_DIST_POST			R_THIGH_PROX_POST			R_THIGH_PROX_ANT			R_THIGH_DIST_ANT			R_THIGH_DIST_POST			L_SHANK_PROX_POST			L_SHANK_PROX_ANT			L_SHANK_DIST_ANT			L_SHANK_DIST_POST			R_SHANK_PROX_POST			R_SHANK_PROX_ANT			R_SHANK_DIST_ANT			R_SHANK_DIST_POST			L_HEEL_LAT			L_HEEL_SUP			L_HEEL_MED			R_HEEL_LAT			R_HEEL_SUP			R_HEEL_MED			L_1ST_MET			L_5TH_MET			L_TOE			R_1ST_MET			R_5TH_MET			R_TOE			
		X1	Y1	Z1	X2	Y2	Z2	X3	Y3	Z3	X4	Y4	Z4	X5	Y5	Z5	X6	Y6	Z6	X7	Y7	Z7	X8	Y8	Z8	X9	Y9	Z9	X10	Y10	Z10	X11	Y11	Z11	X12	Y12	Z12	X13	Y13	Z13	X14	Y14	Z14	X15	Y15	Z15	X16	Y16	Z16	X17	Y17	Z17	X18	Y18	Z18	X19	Y19	Z19	X20	Y20	Z20	X21	Y21	Z21	X22	Y22	Z22	X23	Y23	Z23	X24	Y24	Z24	X25	Y25	Z25	X26	Y26	Z26	X27	Y27	Z27	X28	Y28	Z28	X29	Y29	Z29	X30	Y30	Z30	X31	Y31	Z31	X32	Y32	Z32	X33	Y33	Z33	X34	Y34	Z34	X35	Y35	Z35	X36	Y36	Z36	X37	Y37	Z37	X38	Y38	Z38	X39	Y39	Z39	X40	Y40	Z40	X41	Y41	Z41	X42	Y42	Z42	X43	Y43	Z43	X44	Y44	Z44	X45	Y45	Z45	X46	Y46	Z46	X47	Y47	Z47	X48	Y48	Z48	X49	Y49	Z49	X50	Y50	Z50	

319	1.3266	390.63	1558.9	463.39	405.78	1578.8	168.44	441.19	1816.8	328.42	488.84	1496	316.87	348.19	1577.9	317.54	458.9	1107.5	146.95	458.13	1118.7	467.85	518.77	1024.7	170.83	528.02	1028.1	442.56	436.83	937.68	110.9	444.55	952.78	499.38	338.5	1082.6	259.17	339.04	1088.3	352.05	324.39	1055.1	304.7	405.76	535.47	150.78	377.9	521.5	284.58	398.79	541.44	475.76	377.99	549.36	344.84	382.18	114.23	147.47	386.38	109.96	218.78	375.41	108.72	449.43	384.37	128.12	359.04	411.2	766.13	133.36	472.39	758.42	154.12	468	684.74	167.05	405.27	691.45	145.1	380.21	749.97	487.15	448.14	748.78	493.36	440.51	674.23	485.07	373.33	675.63	478.86	389.54	449.65	148.54	433.39	459.27	173.61	422.89	400.81	175.4	365.63	390.27	167.35	331.16	373.29	482.89	400.05	377.95	482.35	398.76	302.22	470.4	328.18	300.45	468.57	302.35	41.857	155.33	297.66	69.916	189.2	309.75	40.519	222.03	307.18	40.49	420	304.18	70.185	387.3	320.34	45.579	354.04	517.5	53.69	219.98	479.16	40.426	117.63	575.45	62.661	184	530.07	56.826	370.84	488.76	40.145	474.83	580.37	55.4	422.51
320	1.3307	390.52	1559	463.38	405.71	1578.8	168.43	441.15	1816.8	328.37	488.73	1496.1	316.87	348.06	1577.9	317.53	458.83	1107.5	146.98	458.07	1118.7	467.87	518.72	1024.8	170.87	527.96	1028.2	442.58	436.77	937.69	110.93	444.51	952.78	499.41	338.44	1082.6	259.19	338.98	1088.3	352.08	324.33	1055.1	304.73	405.74	535.47	150.79	377.86	521.49	284.6	398.79	541.44	475.78	378	549.36	344.85	382.18	114.23	147.47	386.38	109.96	218.79	375.4	108.71	449.44	384.37	128.12	359.04	411.15	766.13	133.38	472.34	758.43	154.13	467.96	684.74	167.07	405.23	691.45	145.12	380.2	749.97	487.17	448.12	748.79	493.38	440.5	674.24	485.09	373.32	675.63	478.88	389.51	449.65	148.55	433.37	459.27	173.62	422.87	400.81	175.41	365.61	390.26	167.36	331.16	373.28	482.9	400.05	377.94	482.36	398.76	302.21	470.41	328.18	300.45	468.57	302.35	41.854	155.33	297.66	69.913	189.2	309.75	40.516	222.03	307.18	40.487	420	304.17	70.183	387.31	320.34	45.579	354.04	517.5	53.69	219.98	479.16	40.427	117.63	575.45	62.663	184	530.06	56.831	370.84	488.76	40.143	474.83	580.36	55.407	422.51
321	1.3349	390.41	1559	463.37	405.63	1578.8	168.43	441.11	1816.7	328.31	488.62	1496.1	316.87	347.94	1577.9	317.52	458.77	1107.5	147	458.02	1118.7	467.89	518.66	1024.8	170.91	527.91	1028.2	442.6	436.71	937.69	110.96	444.46	952.79	499.43	338.38	1082.6	259.22	338.92	1088.3	352.11	324.28	1055.1	304.76	405.71	535.47	150.8	377.83	521.48	284.61	398.8	541.44	475.8	378.01	549.36	344.86	382.17	114.23	147.47	386.37	109.95	218.79	375.39	108.7	449.45	384.36	128.12	359.05	411.11	766.13	133.4	472.3	758.43	154.15	467.92	684.74	167.09	405.19	691.45	145.15	380.18	749.97	487.18	448.1	748.79	493.4	440.49	674.24	485.1	373.32	675.63	478.9	389.49	449.65	148.56	433.34	459.27	173.63	422.85	400.81	175.42	365.59	390.26	167.37	331.17	373.27	482.91	400.05	377.94	482.37	398.76	302.19	470.42	328.18	300.44	468.57	302.35	41.851	155.33	297.65	69.911	189.2	309.75	40.512	222.03	307.18	40.484	420	304.17	70.181	387.31	320.34	45.578	354.04	517.49	53.691	219.98	479.16	40.428	117.63	575.45	62.666	184	530.06	56.836	370.84	488.76	40.141	474.84	580.36	55.415	422.51
322	1.3391	390.3	1559.1	463.36	405.54	1578.8	168.43	441.06	1816.7	328.25	488.5	1496.2	316.87	347.81	1577.9	317.52	458.7	1107.6	147.03	457.96	1118.7	467.91	518.61	1024.8	170.95	527.86	1028.2	442.62	436.64	937.7	110.99	444.42	952.8	499.46	338.32	1082.6	259.24	338.87	1088.3	352.14	324.22	1055.1	304.79	405.69	535.47	150.82	377.79	521.47	284.62	398.81	541.44	475.81	378.02	549.37	344.87	382.17	114.23	147.47	386.37	109.95	218.79	375.38	108.69	449.46	384.36	128.12	359.06	411.06	766.14	133.42	472.26	758.44	154.17	467.88	684.75	167.11	405.15	691.45	145.17	380.17	749.97	487.2	448.08	748.8	493.42	440.49	674.24	485.12	373.31	675.63	478.91	389.47	449.65	148.58	433.32	459.27	173.64	422.83	400.81	175.43	365.58	390.26	167.38	331.17	373.26	482.91	400.06	377.93	482.38	398.76	302.18	470.43	328.18	300.44	468.58	302.35	41.849	155.33	297.65	69.909	189.2	309.75	40.509	222.03	307.17	40.481	420	304.17	70.179	387.31	320.34	45.577	354.05	517.49	53.691	219.98	479.15	40.428	117.63	575.45	62.669	184	530.05	56.842	370.84	488.76	40.139	474.84	580.35	55.422	422.51
323	1.3432	390.19	1559.2	463.35	405.45	1578.9	168.43	441.02	1816.7	328.19	488.39	1496.2	316.88	347.68	1577.9	317.52	458.64	1107.6	147.06	457.91	1118.8	467.93	518.55	1024.8	170.99	527.81	1028.2	442.64	436.58	937.7	111.02	444.39	952.81	499.48	338.26	1082.6	259.27	338.81	1088.3	352.17	324.16	1055.1	304.82	405.66	535.47	150.83	377.76	521.46	284.63	398.82	541.44	475.83	378.02	549.37	344.88	382.16	114.23	147.48	386.36	109.94	218.79	375.37	108.68	449.47	384.35	128.12	359.07	411.02	766.14	133.45	472.21	758.44	154.18	467.84	684.75	167.13	405.11	691.45	145.19	380.16	749.96	487.22	448.07	748.8	493.45	440.48	674.24	485.14	373.3	675.63	478.93	389.45	449.65	148.59	433.3	459.27	173.65	422.81	400.81	175.44	365.56	390.25	167.39	331.18	373.25	482.92	400.06	377.93	482.4	398.76	302.16	470.44	328.18	300.44	468.58	302.35	41.846	155.33	297.65	69.906	189.2	309.75	40.506	222.03	307.17	40.477	420.01	304.17	70.176	387.31	320.34	45.577	354.05	517.49	53.692	219.98	479.15	40.429	117.63	575.45	62.672	184	530.04	56.848	370.84	488.75	40.138	474.84	580.34	55.43	422.52
324	1.3474	390.07	1559.2	463.35	405.35	1578.9	168.43	440.97	1816.7	328.14	488.27	1496.2	316.88	347.54	1577.9	317.52	458.59	1107.6	147.08	457.85	1118.8	467.96	518.5	1024.8	171.03	527.77	1028.3	442.65	436.52	937.71	111.05	444.35	952.82	499.51	338.2	1082.6	259.29	338.76	1088.3	352.2	324.11	1055.1	304.85	405.64	535.47	150.84	377.73	521.45	284.65	398.84	541.44	475.84	378.03	549.37	344.89	382.16	114.23	147.48	386.36	109.94	218.8	375.36	108.67	449.48	384.35	128.12	359.08	410.97	766.14	133.47	472.17	758.45	154.2	467.8	684.75	167.15	405.07	691.45	145.21	380.14	749.96	487.24	448.05	748.81	493.47	440.48	674.24	485.16	373.3	675.62	478.95	389.42	449.65	148.6	433.28	459.27	173.66	422.8	400.81	175.45	365.54	390.25	167.4	331.19	373.24	482.93	400.07	377.92	482.41	398.76	302.14	470.45	328.18	300.43	468.58	302.35	41.844	155.33	297.65	69.904	189.2	309.74	40.503	222.03	307.17	40.473	420.01	304.16	70.174	387.32	320.33	45.576	354.05	517.49	53.692	219.98	479.15	40.43	117.63	575.45	62.674	184	530.04	56.854	370.84	488.75	40.136	474.84	580.34	55.439	422.52
325	1.3516	389.95	1559.2	463.35	405.24	1578.9	168.43	440.92	1816.7	328.08	488.16	1496.3	316.89	347.41	1577.9	317.52	458.53	1107.7	147.11	457.8	1118.8	467.98	518.44	1024.9	171.08	527.72	1028.3	442.67	436.45	937.71	111.08	444.31	952.82	499.53	338.14	1082.6	259.32	338.71	1088.3	352.23	324.05	1055.1	304.88	405.62	535.47	150.85	377.71	521.45	284.66	398.85	541.44	475.86	378.04	549.37	344.9	382.16	114.23	147.48	386.35	109.93	218.8	375.35	108.66	449.49	384.34	128.12	359.08	410.93	766.14	133.5	472.13	758.45	154.22	467.76	684.75	167.16	405.02	691.45	145.23	380.13	749.96	487.26	448.04	748.81	493.49	440.47	674.24	485.17	373.3	675.62	478.96	389.41	449.65	148.61	433.26	459.27	173.67	422.78	400.81	175.46	365.53	390.25	167.41	331.2	373.23	482.94	400.07	377.91	482.42	398.76	302.12	470.46	328.18	300.43	468.58	302.34	41.842	155.33	297.65	69.902	189.2	309.74	40.5	222.03	307.16	40.468	420.01	304.16	70.172	387.32	320.33	45.575	354.05	517.49	53.693	219.98	479.15	40.431	117.63	575.44	62.677	184.01	530.03	56.86	370.85	488.75	40.133	474.85	580.33	55.448	422.52
326	1.3558	389.83	1559.3	463.34	405.13	1578.9	168.44	440.86	1816.7	328.02	488.04	1496.3	316.89	347.27	1577.9	317.52	458.48	1107.7	147.14	457.76	1118.8	468	518.39	1024.9	171.12	527.68	1028.3	442.69	436.39	937.72	111.11	444.28	952.83	499.56	338.08	1082.6	259.34	338.66	1088.3	352.25	324	1055.1	304.91	405.6	535.47	150.86	377.69	521.44	284.67	398.86	541.44	475.88	378.06	549.37	344.91	382.15	114.23	147.48	386.35	109.93	218.8	375.34	108.65	449.5	384.34	128.12	359.09	410.88	766.15	133.52	472.09	758.46	154.23	467.72	684.76	167.18	404.99	691.45	145.26	380.13	749.96	487.28	448.03	748.82	493.51	440.47	674.24	485.19	373.29	675.62	478.98	389.39	449.65	148.62	433.24	459.27	173.68	422.76	400.82	175.48	365.51	390.24	167.42	331.21	373.22	482.96	400.08	377.91	482.43	398.77	302.1	470.47	328.18	300.43	468.58	302.34	41.84	155.33	297.65	69.9	189.2	309.74	40.498	222.03	307.16	40.463	420.01	304.16	70.17	387.32	320.33	45.574	354.06	517.49	53.693	219.98	479.15	40.432	117.63	575.44	62.68	184.01	530.03	56.866	370.85	488.74	40.131	474.85	580.32	55.456	422.52
327	1.3599	389.7	1559.3	463.35	405.02	1578.9	168.45	440.81	1816.7	327.97	487.92	1496.4	316.9	347.13	1577.9	317.52	458.43	1107.7	147.17	457.71	1118.8	468.02	518.33	1024.9	171.16	527.64	1028.3	442.71	436.32	937.72	111.14	444.25	952.84	499.58	338.02	1082.6	259.37	338.61	1088.3	352.28	323.95	1055.1	304.94	405.59	535.47	150.87	377.66	521.43	284.68	398.88	541.45	475.89	378.07	549.37	344.92	382.15	114.23	147.48	386.35	109.92	218.8	375.33	108.64	449.51	384.33	128.12	359.1	410.84	766.15	133.55	472.05	758.46	154.25	467.68	684.76	167.2	404.95	691.45	145.28	380.12	749.96	487.3	448.02	748.82	493.53	440.46	674.24	485.21	373.29	675.62	478.99	389.37	449.64	148.63	433.22	459.27	173.69	422.75	400.82	175.49	365.49	390.24	167.43	331.22	373.21	482.97	400.09	377.9	482.44	398.77	302.08	470.48	328.18	300.42	468.58	302.34	41.838	155.33	297.65	69.897	189.2	309.74	40.495	222.02	307.16	40.458	420.02	304.15	70.167	387.32	320.33	45.573	354.06	517.49	53.694	219.98	479.15	40.432	117.63	575.44	62.683	184.01	530.02	56.873	370.85	488.74	40.129	474.85	580.32	55.466	422.52
328	1.3641	389.58	1559.4	463.35	404.89	1579	168.46	440.74	1816.7	327.92	487.8	1496.4	316.91	346.99	1577.9	317.53	458.38	1107.7	147.2	457.67	1118.9	468.04	518.28	1024.9	171.21	527.6	1028.3	442.72	436.26	937.73	111.17	444.22	952.84	499.61	337.96	1082.6	259.39	338.56	1088.4	352.31	323.89	1055.1	304.97	405.57	535.47	150.88	377.64	521.43	284.69	398.9	541.45	475.91	378.08	549.37	344.94	382.15	114.22	147.48	386.34	109.92	218.8	375.32	108.63	449.52	384.32	128.11	359.11	410.79	766.16	133.57	472	758.46	154.26	467.64	684.76	167.22	404.91	691.45	145.3	380.11	749.95	487.32	448.01	748.82	493.55	440.46	674.24	485.23	373.29	675.62	479.01	389.35	449.64	148.64	433.21	459.27	173.7	422.73	400.82	175.49	365.48	390.24	167.44	331.23	373.2	482.98	400.1	377.89	482.45	398.77	302.06	470.49	328.18	300.42	468.59	302.34	41.836	155.33	297.65	69.895	189.2	309.74	40.493	222.02	307.15	40.452	420.02	304.15	70.165	387.33	320.32	45.572	354.06	517.49	53.694	219.99	479.15	40.433	117.63	575.44	62.685	184.01	530.01	56.879	370.85	488.74	40.127	474.85	580.31	55.475	422.52
